<svg width="18" height="18" viewBox="0 0 18 18" fill="none" xmlns="http://www.w3.org/2000/svg">
<path fill-rule="evenodd" clip-rule="evenodd" d="M12.8676 10.7016C12.6548 10.5952 11.6112 10.0823 11.4169 10.0109C11.2226 9.94015 11.0812 9.90515 10.939 10.118C10.7976 10.3294 10.3912 10.808 10.2676 10.9494C10.1433 11.0916 10.0198 11.1087 9.80761 11.003C9.59547 10.8959 8.91119 10.6723 8.10047 9.94944C7.46976 9.38658 7.04333 8.69158 6.91976 8.47873C6.79619 8.26658 6.90619 8.15158 7.01262 8.04587C7.10833 7.95087 7.22476 7.79801 7.33119 7.67444C7.43762 7.55016 7.47262 7.46159 7.54333 7.31944C7.61476 7.17801 7.57905 7.05444 7.52547 6.94801C7.47262 6.84159 7.04833 5.79659 6.87119 5.37159C6.69905 4.95802 6.52405 5.01445 6.39405 5.0073C6.26976 5.00159 6.12833 5.00016 5.98691 5.00016C5.84548 5.00016 5.61548 5.05302 5.42119 5.26587C5.22619 5.47802 4.67834 5.99159 4.67834 7.03659C4.67834 8.08087 5.43834 9.09015 5.54476 9.2323C5.65119 9.37372 7.04119 11.518 9.17047 12.4373C9.67761 12.6559 10.0726 12.7866 10.3805 12.8837C10.889 13.0459 11.3519 13.023 11.7176 12.968C12.1248 12.9073 12.9733 12.4544 13.1505 11.9587C13.3269 11.463 13.3269 11.038 13.274 10.9494C13.2212 10.8609 13.0798 10.808 12.8669 10.7016H12.8676ZM8.99476 15.9894H8.9919C7.72721 15.9897 6.48574 15.6497 5.39762 15.0051L5.14048 14.8523L2.46763 15.5537L3.1812 12.948L3.01334 12.6809C2.3063 11.5554 1.93212 10.2529 1.93406 8.92373C1.93548 5.03088 5.10262 1.86374 8.99761 1.86374C10.8833 1.86374 12.6562 2.59945 13.989 3.93373C14.6464 4.58843 15.1675 5.36699 15.5221 6.22437C15.8767 7.08175 16.0577 8.00093 16.0547 8.92873C16.0533 12.8216 12.8862 15.9894 8.99476 15.9894ZM15.0033 2.92016C14.2163 2.12797 13.2799 1.49984 12.2484 1.07217C11.2169 0.6445 10.1107 0.425799 8.99404 0.42874C4.31262 0.42874 0.501202 4.23945 0.499773 8.92301C0.499059 10.4202 0.889772 11.8816 1.63334 13.1694L0.428345 17.5716L4.93119 16.3901C6.17682 17.0688 7.57268 17.4244 8.99119 17.4244H8.99476C13.6762 17.4244 17.4876 13.6137 17.489 8.92944C17.4925 7.81321 17.2746 6.70737 16.8479 5.6759C16.4212 4.64442 15.7943 3.70778 15.0033 2.92016Z" fill="white"/>
</svg>
